<svg width="59" height="59" viewBox="0 0 59 59" fill="none" xmlns="http://www.w3.org/2000/svg">
<g clip-path="url(#clip0_44_483)">
<path d="M58.4139 0.58606H0.58609V58.4139H58.4139V0.58606Z" stroke="#944E63" stroke-width="4"/>
<path d="M7.56268 25.9366C7.56268 23.3964 8.25767 21.4792 9.64761 20.1851C11.0375 18.8671 13.2543 18.208 16.2978 18.208H24.7813V21.5511H16.2978C14.7641 21.5511 13.6257 21.9106 12.8828 22.6295C12.1639 23.3245 11.8044 24.4268 11.8044 25.9366V29.8548H23.1277V33.162H11.8044V43.3709H7.56268V25.9366ZM28.4499 25.9366C28.4499 23.3964 29.1448 21.4792 30.5348 20.1851C31.9248 18.8671 34.1415 18.208 37.185 18.208H45.6685V21.5511H37.185C35.6513 21.5511 34.5129 21.9106 33.77 22.6295C33.0511 23.3245 32.6916 24.4268 32.6916 25.9366V29.8548H44.0149V33.162H32.6916V43.3709H28.4499V25.9366Z" fill="#944E63"/>
</g>
<defs>
<clipPath id="clip0_44_483">
<rect width="59" height="59" fill="white"/>
</clipPath>
</defs>
</svg>
