<svg width="27" height="27" viewBox="0 0 27 27" fill="none" xmlns="http://www.w3.org/2000/svg">
<path d="M26.7075 25.2925L20.4488 19.035C22.2628 16.8572 23.1674 14.0638 22.9743 11.236C22.7812 8.40814 21.5054 5.76361 19.4122 3.85251C17.319 1.9414 14.5696 0.910859 11.7359 0.975258C8.90222 1.03966 6.20246 2.19404 4.19824 4.19827C2.19401 6.20249 1.03963 8.90225 0.975228 11.7359C0.910828 14.5696 1.94137 17.319 3.85248 19.4122C5.76358 21.5054 8.40811 22.7813 11.2359 22.9743C14.0637 23.1674 16.8571 22.2628 19.035 20.4488L25.2925 26.7075C25.3854 26.8005 25.4957 26.8742 25.6171 26.9244C25.7385 26.9747 25.8686 27.0006 26 27.0006C26.1314 27.0006 26.2615 26.9747 26.3829 26.9244C26.5043 26.8742 26.6146 26.8005 26.7075 26.7075C26.8004 26.6146 26.8741 26.5043 26.9244 26.3829C26.9747 26.2615 27.0006 26.1314 27.0006 26C27.0006 25.8686 26.9747 25.7385 26.9244 25.6171C26.8741 25.4958 26.8004 25.3855 26.7075 25.2925ZM3.00001 12C3.00001 10.22 3.52785 8.47995 4.51678 6.99991C5.50572 5.51987 6.91132 4.36631 8.55586 3.68513C10.2004 3.00394 12.01 2.82571 13.7558 3.17297C15.5017 3.52024 17.1053 4.37741 18.364 5.63608C19.6226 6.89475 20.4798 8.4984 20.8271 10.2442C21.1743 11.9901 20.9961 13.7997 20.3149 15.4442C19.6337 17.0887 18.4802 18.4943 17.0001 19.4833C15.5201 20.4722 13.78 21 12 21C9.61387 20.9974 7.32623 20.0483 5.63897 18.3611C3.95172 16.6738 3.00266 14.3862 3.00001 12Z" fill="#944E63"/>
</svg>
